<svg width="64" height="64" viewBox="0 0 64 64" fill="none" xmlns="http://www.w3.org/2000/svg">
<path d="M33.7085 20.536L27.8525 43H21.2285L17.6445 28.216L13.9325 43H7.3085L1.6125 20.536H7.4685L10.7005 36.888L14.7005 20.536H20.7165L24.5565 36.888L27.8205 20.536H33.7085ZM44.5808 43.224C42.9381 43.224 41.4661 42.9573 40.1648 42.424C38.8634 41.8907 37.8181 41.1013 37.0288 40.056C36.2608 39.0107 35.8554 37.752 35.8128 36.28H41.6368C41.7221 37.112 42.0101 37.752 42.5008 38.2C42.9914 38.6267 43.6314 38.84 44.4208 38.84C45.2314 38.84 45.8714 38.6587 46.3408 38.296C46.8101 37.912 47.0448 37.3893 47.0448 36.728C47.0448 36.1733 46.8528 35.7147 46.4688 35.352C46.1061 34.9893 45.6474 34.6907 45.0928 34.456C44.5594 34.2213 43.7914 33.9547 42.7888 33.656C41.3381 33.208 40.1541 32.76 39.2368 32.312C38.3194 31.864 37.5301 31.2027 36.8688 30.328C36.2074 29.4533 35.8768 28.312 35.8768 26.904C35.8768 24.8133 36.6341 23.1813 38.1488 22.008C39.6634 20.8133 41.6368 20.216 44.0688 20.216C46.5434 20.216 48.5381 20.8133 50.0528 22.008C51.5674 23.1813 52.3781 24.824 52.4848 26.936H46.5648C46.5221 26.2107 46.2554 25.6453 45.7648 25.24C45.2741 24.8133 44.6448 24.6 43.8767 24.6C43.2154 24.6 42.6821 24.7813 42.2768 25.144C41.8714 25.4853 41.6688 25.9867 41.6688 26.648C41.6688 27.3733 42.0101 27.9387 42.6927 28.344C43.3754 28.7493 44.4421 29.1867 45.8928 29.656C47.3434 30.1467 48.5168 30.616 49.4128 31.064C50.3301 31.512 51.1194 32.1627 51.7808 33.016C52.4421 33.8693 52.7728 34.968 52.7728 36.312C52.7728 37.592 52.4421 38.7547 51.7808 39.8C51.1408 40.8453 50.2021 41.6773 48.9648 42.296C47.7274 42.9147 46.2661 43.224 44.5808 43.224Z" fill="#0B0F1F"/>
<path d="M58.7003 43.256C57.7403 43.256 56.9509 42.9787 56.3323 42.424C55.7349 41.848 55.4363 41.144 55.4363 40.312C55.4363 39.4587 55.7349 38.744 56.3323 38.168C56.9509 37.592 57.7403 37.304 58.7003 37.304C59.6389 37.304 60.4069 37.592 61.0043 38.168C61.6229 38.744 61.9323 39.4587 61.9323 40.312C61.9323 41.144 61.6229 41.848 61.0043 42.424C60.4069 42.9787 59.6389 43.256 58.7003 43.256Z" fill="#6356F0"/>
</svg>
